<svg xmlns="http://www.w3.org/2000/svg" xmlns:xlink="http://www.w3.org/1999/xlink" width="500" zoomAndPan="magnify" viewBox="0 0 375 374.999991" height="500" preserveAspectRatio="xMidYMid meet" version="1.0"><defs><g/><clipPath id="2540b932b5"><path d="M 154.941406 94.53125 L 179.820312 94.53125 L 179.820312 119.40625 L 154.941406 119.40625 Z M 154.941406 94.53125 " clip-rule="nonzero"/></clipPath><clipPath id="2dbd8cbc47"><path d="M 167.382812 94.53125 C 160.511719 94.53125 154.941406 100.097656 154.941406 106.96875 C 154.941406 113.839844 160.511719 119.40625 167.382812 119.40625 C 174.25 119.40625 179.820312 113.839844 179.820312 106.96875 C 179.820312 100.097656 174.25 94.53125 167.382812 94.53125 Z M 167.382812 94.53125 " clip-rule="nonzero"/></clipPath></defs><rect x="-37.5" width="450" fill="#ffffff" y="-37.499999" height="449.999989" fill-opacity="1"/><rect x="-37.5" width="450" fill="#232726" y="-37.499999" height="449.999989" fill-opacity="1"/><g fill="#b0e650" fill-opacity="1"><g transform="translate(156.443255, 264.294685)"><g><path d="M 20.953125 -126.09375 L 20.953125 -30.0625 C 20.953125 -26.832031 21.984375 -24.082031 24.046875 -21.8125 C 26.117188 -19.550781 28.644531 -18.421875 31.625 -18.421875 C 34.726562 -18.421875 37.378906 -19.519531 39.578125 -21.71875 C 41.773438 -23.925781 42.875 -26.515625 42.875 -29.484375 L 42.875 -62.84375 C 42.875 -65.820312 41.773438 -68.410156 39.578125 -70.609375 C 37.378906 -72.804688 34.726562 -73.90625 31.625 -73.90625 L 25.03125 -73.90625 L 25.03125 -91.953125 L 31.625 -91.953125 C 37.832031 -91.953125 43.328125 -90.691406 48.109375 -88.171875 C 52.890625 -85.648438 56.640625 -82.1875 59.359375 -77.78125 C 62.078125 -73.382812 63.4375 -68.34375 63.4375 -62.65625 L 63.4375 -29.484375 C 63.4375 -23.660156 62.046875 -18.359375 59.265625 -13.578125 C 56.484375 -8.796875 52.695312 -4.976562 47.90625 -2.125 C 43.125 0.71875 37.695312 2.140625 31.625 2.140625 C 25.675781 2.140625 20.335938 0.648438 15.609375 -2.328125 C 10.890625 -5.304688 7.109375 -9.25 4.265625 -14.15625 C 1.421875 -19.070312 0 -24.375 0 -30.0625 L 0 -126.09375 C 0.125 -129.582031 1.316406 -132.195312 3.578125 -133.9375 C 5.847656 -135.6875 8.210938 -136.5625 10.671875 -136.5625 C 13.253906 -136.5625 15.613281 -135.6875 17.75 -133.9375 C 19.882812 -132.195312 20.953125 -129.582031 20.953125 -126.09375 Z M 20.953125 -126.09375 "/></g></g></g><g clip-path="url(#2540b932b5)"><g clip-path="url(#2dbd8cbc47)"><path fill="#b0e650" d="M 154.941406 94.53125 L 179.820312 94.53125 L 179.820312 119.40625 L 154.941406 119.40625 Z M 154.941406 94.53125 " fill-opacity="1" fill-rule="nonzero"/></g></g></svg>